<?xml version="1.0" encoding="UTF-8" standalone="no"?>
<!-- Created with Inkscape (http://www.inkscape.org/) -->

<svg
   width="1430.0308mm"
   height="592.04962mm"
   viewBox="0 0 1430.0307 592.04962"
   version="1.1"
   id="svg1"
   xml:space="preserve"
   xmlns="http://www.w3.org/2000/svg"
   xmlns:svg="http://www.w3.org/2000/svg"><defs
     id="defs1" /><rect
     style="fill:none;fill-opacity:1;stroke:none;stroke-width:0.16587;stroke-linejoin:round;paint-order:fill markers stroke"
     id="rect60"
     width="1430.0305"
     height="592.04974"
     x="0.0007382888"
     y="-0.00077690964" /><path
     id="path64"
     style="fill:#c1922b;fill-opacity:1;stroke-width:1.6817"
     d="M 144.05449,44.055447 C 82.848886,42.125947 14.725486,105.58405 50.019686,194.11865 c 13.3046,36.2853 50.155304,75.5848 58.827804,155.875 2.9233,27.6394 -0.6811,56.2025 -1.9553,64.6967 3.0816,-3.8523 25.9355,-30.2758 49.6422,-46.1873 23.7068,-15.9119 72.3888,-34.8324 72.3888,-34.8324 -24.8433,66.8291 -49.1138,107.2224 -92.6821,145.3333 -32.3428,30.131 -80.203004,50.4851 -80.203004,50.4851 0,0 65.237804,-5.817 123.956104,-72.2338 34.677,-37.2079 51.7164,-86.5872 69.8832,-130.4525 0,0 63.5545,-16.4558 94.0947,-4.8738 36.4748,13.8329 57.992,51.9494 54.1826,104.8659 -4.7922,66.5713 -44.6229,101.5215 -103.7511,101.5215 -46.7042,1.4728 -76.9534,-28.4049 -98.44,-66.2324 7.1581,30.0493 35.4001,101.8668 130.8981,82.7671 46.9429,-9.6291 83.4245,-50.0513 90.447,-95.4397 10.42,-67.3465 -10.3134,-115.144 -57.3462,-142.2986 2.2022,-1.3586 31.025,-11.0175 49.6509,-26.0295 30.3927,-24.6752 45.4384,-60.5542 38.5173,-94.3368 -6.0025,-28.512 -51.8754,-100.012703 -148.2911,-64.5293 16.2948,-40.090403 23.9013,-51.689103 72.1588,-68.174603 -60.1653,1.0303 -76.7952,38.643 -91.8001,74.615903 -35.9729,20.6882 -101.0474,65.6338 -124.2573,130.6084 0,0 71.4091,-86.9203 118.6216,-108.8081 h 0.04 c 0.6831,2.4393 -40.1431,162.6938 -40.1431,162.6938 0,0 -30.8656,12.2908 -58.7409,26.4211 -26.757,13.563 -50.9616,31.1126 -50.9616,31.1126 11.1146,-95.3141 -65.773004,-157.1619 -65.773004,-226.9226 0,-74.952203 99.728104,-116.631103 140.654204,-53.125003 6.6039,10.236103 15.1095,24.799703 23.4129,55.471903 0.2855,-50.452903 -24.3366,-97.216203 -78.991,-102.067003 z m 208.6801,88.051303 c 53.5166,1.9322 93.4543,51.578 69.3326,103.2829 -7.3393,15.7307 -28.5449,35.5666 -44.4858,42.3651 -8.7613,3.7369 -18.5244,6.9806 -28.5654,9.7858 -44.6713,12.4799 -94.8106,20.5827 -94.8106,20.5827 0.5566,-3.0145 29.0075,-125.3618 36.271,-156.0177 0.8984,-3.7928 4.4755,-8.286 8.0153,-9.917 13.9717,-6.4378 28.7585,-11.002 54.2429,-10.0818 z m 359.02,218.3087 c -30.8395,0 -55.2079,8.9505 -73.1028,26.8454 h 0.2855 c -17.7062,17.1345 -26.5603,41.313 -26.5603,72.5362 0,31.0329 9.0444,55.2114 27.1311,72.5366 18.2767,17.1349 43.0261,25.7024 74.2493,25.7024 22.8464,0 42.8373,-6.188 59.9714,-18.5633 20.9432,-15.0401 31.4135,-36.2687 31.4135,-63.6841 h 8e-4 c 0,-3.6342 -0.333,-10.0692 -0.333,-10.0692 l -9.8012,-8.7788 h -79.8247 c -5.5209,0 -8.2821,2.7613 -8.2821,8.2821 v 4.8544 c 0,5.3309 2.7612,7.9966 8.2821,7.9966 h 67.968 v 1.1421 c 0,17.1345 -7.0451,31.2228 -21.1338,42.2649 -13.1364,10.2813 -29.2232,15.4223 -48.2622,15.4223 -25.1303,0 -44.6443,-6.569 -58.5427,-19.7059 -14.4693,-13.5174 -21.7043,-32.7451 -21.7043,-57.6859 0,-23.9882 7.1387,-43.1228 21.4177,-57.4014 13.7081,-13.7077 32.7475,-20.5613 57.1167,-20.5613 38.6481,0 61.2087,15.3259 67.6818,45.9779 0.3806,4.1888 3.0458,6.2828 7.9962,6.2828 h 5.7115 c 5.3301,0 7.9966,-2.6657 7.9966,-7.9966 v -1.7134 c -4.1888,-21.5132 -14.8503,-37.7907 -31.9844,-48.8331 -15.6106,-9.8991 -34.8383,-14.8503 -57.6832,-14.8507 z m 210.8363,0 c -30.8391,0 -55.2063,8.9505 -73.1012,26.8454 h 0.2815 c -17.7058,17.1345 -26.5583,41.313 -26.5583,72.5362 0,31.0329 9.0424,55.2114 27.1292,72.5366 18.277,17.1349 43.0272,25.7024 74.25,25.7024 22.8468,0 42.8373,-6.188 59.9718,-18.5633 20.94241,-15.0401 31.41351,-36.2687 31.41351,-63.6841 0,-3.6342 -0.3369,-10.0692 -0.3369,-10.0692 l -9.8012,-8.7788 h -79.82361 c -5.5212,0 -8.2824,2.7613 -8.2824,8.2821 v 4.8544 c 0,5.3309 2.7612,7.9966 8.2824,7.9966 h 67.9677 v 1.1421 c 0,17.1345 -7.0444,31.2228 -21.1327,42.2649 -13.1364,10.2813 -29.2243,15.4223 -48.263,15.4223 -25.1307,0 -44.6455,-6.569 -58.5439,-19.7059 -14.4688,-13.5174 -21.7042,-32.7451 -21.7042,-57.6859 0,-23.9882 7.1402,-43.1228 21.4192,-57.4014 13.7081,-13.7077 32.746,-20.5613 57.1151,-20.5613 38.6482,0 61.2088,15.3259 67.6814,45.9779 0.3806,4.1888 3.0471,6.2828 7.9974,6.2828 h 5.71151 c 5.3306,0 7.9958,-2.6657 7.9958,-7.9966 v -1.7134 c -4.1888,-21.5136 -14.84981,-37.7907 -31.98441,-48.8331 -15.611,-9.8995 -34.8383,-14.8503 -57.6839,-14.8507 z m -474.8515,4.8592 c -5.2508,0 -7.8757,2.5325 -7.8757,7.5978 v 110.0279 c 0,25.8891 6.7506,45.0253 20.2538,57.4069 12.9402,11.8191 31.976,17.7288 57.1071,17.7288 12.3781,0 23.3508,-1.5009 32.9157,-4.5031 29.444,-9.0052 44.1654,-32.3614 44.1654,-70.0696 v -110.5909 c 0,-5.0653 -2.5321,-7.5978 -7.5958,-7.5978 h -5.344 c -5.2517,0 -7.8773,2.5325 -7.8773,7.5978 v 110.8716 c 0,35.6447 -18.7552,53.4678 -56.264,53.4678 -37.6962,0 -56.5434,-18.1978 -56.5434,-54.5929 v -109.7465 c 0,-5.0653 -2.5321,-7.5978 -7.5962,-7.5978 z m 765.96331,0 c -6.5639,0 -9.846,2.5674 -9.846,7.7024 v 171.1146 c 0,5.1351 3.2821,7.7021 9.846,7.7021 h 3.095 c 5.2512,0 7.8765,-2.567 7.8765,-7.7021 v -171.1146 c 0,-5.135 -2.6253,-7.7024 -7.8765,-7.7024 z m 31.9495,0 c -5.0634,0 -7.5958,2.5674 -7.5958,7.7024 v 4.952 c 0,5.1355 2.5324,7.7032 7.5958,7.7032 h 57.6697 v 158.4594 c 0,5.1351 2.5317,7.7021 7.5958,7.7021 h 5.346 c 5.2512,0 7.8764,-2.567 7.8764,-7.7021 v -158.4594 h 57.6694 c 2.0627,0 3.8443,-0.7342 5.3452,-2.2018 1.6876,-1.6504 2.5316,-3.4835 2.5316,-5.5014 v -4.952 c 0,-2.0174 -0.844,-3.7594 -2.5316,-5.2266 -1.5009,-1.6504 -3.2825,-2.4758 -5.3452,-2.4758 z m -216.9276,0.2101 v 0 c -5.4392,0 -8.1599,2.5654 -8.1599,7.6945 0,1.8319 0.6573,3.5723 1.9707,5.2215 l 64.984,77.7665 -68.6408,82.9867 0.2775,-0.551 c -1.4997,1.4656 -2.2502,3.2976 -2.2502,5.4962 0,5.1288 2.7196,7.693 8.158,7.693 h 6.471 c 2.2506,0 4.3137,-0.9158 6.1893,-2.7478 l 64.4203,-76.1168 64.4219,77.2165 c 0.5625,1.0986 2.3445,1.6481 5.3456,1.6481 h 6.4699 c 5.4391,0 8.1579,-2.4738 8.1579,-7.4202 0,-2.1979 -0.7497,-4.0294 -2.2502,-5.4951 l -68.0787,-82.4381 63.8582,-75.8421 c 2.4381,-3.6643 3.6576,-6.0457 3.6576,-7.1454 0,-5.3123 -2.7184,-7.9693 -8.158,-7.9693 h -7.0328 c -2.2506,0 -4.3141,0.9162 -6.1892,2.7477 l -60.2022,71.722 -59.9207,-71.722 c -1.3127,-1.8315 -3.3753,-2.7477 -6.1885,-2.7477 z" /></svg>
