<?xml version="1.0" encoding="UTF-8" standalone="no"?>
<!-- Created with Inkscape (http://www.inkscape.org/) -->

<svg
   width="1459.2919mm"
   height="1459.2919mm"
   viewBox="0 0 1459.2918 1459.2918"
   version="1.1"
   id="svg1"
   xml:space="preserve"
   xmlns="http://www.w3.org/2000/svg"
   xmlns:svg="http://www.w3.org/2000/svg"><defs
     id="defs1" /><rect
     style="fill:none;fill-opacity:1;stroke:none;stroke-width:0.449792;stroke-linejoin:round;paint-order:fill markers stroke"
     id="rect21"
     width="1459.2916"
     height="1459.2916"
     x="0.0010637766"
     y="-0.00058597222" /><g
     transform="matrix(19.758186,0,0,19.758186,-139564.86,-78604.078)"
     id="g29"
     style="fill:#c1922b;fill-opacity:1;stroke:none"><g
       style="fill:#c1922b;fill-opacity:1;stroke:none"
       transform="matrix(0.01944631,0,0,-0.01944631,7019.7826,4074.981)"
       id="g28"><path
         d="m 3259,4580 c -85,-84 -134,-172 -164,-293 -33,-138 -14,-358 45,-506 11,-30 53,-115 93,-190 210,-398 267,-559 298,-846 11,-104 8,-297 -7,-390 l -6,-40 28,35 c 63,80 205,209 284,258 81,50 266,130 276,119 3,-2 -4,-49 -15,-104 -59,-289 -187,-528 -391,-733 -148,-148 -520,-338 -520,-338 0,0 65,-2 160,25 434.1809,122.5678 857.2181,648.7717 1034,1136 17.1977,51.7078 51.2024,139.1762 97.3534,152.2244 176.7754,49.9794 340.8254,66.01 498.845,34.1803 53.9199,-7.8016 451.7491,-192.8472 466.8016,-639.4047 8.1893,-192.4478 -36.9196,-352.2396 -197,-510 -139,-139 -285,-200 -479,-200 -321.4062,-5.0659 -436.3009,64.8265 -651,450 0,0 9,-38 20,-78 81,-290 302,-501 570,-543 280.4644,-42.0697 790.3803,118.1999 936,656 25.704,157.492 32.8303,320.6397 -9,458 -55.479,252.2404 -272.5669,432.6765 -427,537 14.6376,9.0301 206.2046,73.2246 330,173 202,164 302,409 256,627 -48,228 -225,405 -473,472 -157,42 -400,24 -543,-41 -24,-11 -46,-18 -48,-16 -8,7 86,142 139,199 94,103 259,211 377,246 23,7 42,17 42,22 0,12 -140,0 -215,-18 -225,-54 -451,-247 -584,-499 -26,-48 -48,-72 -114,-121 -90,-68 -235,-214 -310,-311 -67,-87 -157,-242 -199,-343 -50,-118 -56,-147 -14,-72 56,101 189,266 299,369 69,65 195,158 202,151 7,-7 -136,-780 -149,-806 -16,-35 -455,-233 -455,-233 -2.4986,79.6299 -95.6885,437.0684 -216,706 -119.8572,300.6062 -315.1758,709.0939 -42,981 199,180 511,139 656,-86 43.9216,-68.0785 112.3105,-209.8917 151,-330 21.8381,327.0943 -104.5367,566.9347 -398,649 -119.9483,38.2741 -393.7608,70.2392 -633,-169 z M 4502,3130 c -46.2186,0 121.8048,826.787 144,851 21,24 92,47 212,69 710.6116,145.5875 968.0642,-727.4881 -356,-920 z"
         id="path28"
         style="fill:#c1922b;fill-opacity:1;stroke:none"
         transform="matrix(0.79156365,0,0,0.79156365,641.752,639.12549)" /></g></g></svg>
